<svg width="104" height="38" viewBox="0 0 104 38" fill="none" xmlns="http://www.w3.org/2000/svg">
<path d="M1.125 32H9.34091C13.1335 32 15.4773 29.929 15.4773 27.0568C15.4773 24.5938 13.6619 22.983 11.4205 22.8977V22.7273C13.4403 22.3267 14.7955 20.8352 14.7955 18.9091C14.7955 16.25 12.6818 14.5455 8.69318 14.5455H1.125V32ZM5.86364 28.2159V24.5341H8.14773C9.58807 24.5341 10.4659 25.2159 10.4659 26.4432C10.4659 27.6108 9.6733 28.2159 8.07955 28.2159H5.86364ZM5.86364 21.6023V18.2614H7.875C9.05114 18.2614 9.92045 18.858 9.92045 19.9318C9.92045 21.0057 9.05114 21.6023 7.80682 21.6023H5.86364ZM17.1562 32H29.7017V28.1818H21.8949V25.1818H29.0881V21.3636H21.8949V18.3636H29.7358V14.5455H17.1562V32ZM32.0859 32H40.3018C44.0945 32 46.4382 29.929 46.4382 27.0568C46.4382 24.5938 44.6229 22.983 42.3814 22.8977V22.7273C44.4013 22.3267 45.7564 20.8352 45.7564 18.9091C45.7564 16.25 43.6428 14.5455 39.6541 14.5455H32.0859V32ZM36.8246 28.2159V24.5341H39.1087C40.549 24.5341 41.4268 25.2159 41.4268 26.4432C41.4268 27.6108 40.6342 28.2159 39.0405 28.2159H36.8246ZM36.8246 21.6023V18.2614H38.8359C40.0121 18.2614 40.8814 18.858 40.8814 19.9318C40.8814 21.0057 40.0121 21.6023 38.7678 21.6023H36.8246ZM52.8558 14.5455H48.1172V32H52.8558V14.5455ZM59.6357 32L60.6413 28.6591H66.4027L67.4084 32H72.522L66.7607 14.5455H60.2834L54.522 32H59.6357ZM61.7152 25.1136L63.4538 19.3523H63.5902L65.3288 25.1136H61.7152ZM89.3054 14.5455H84.5668V23.6818H84.4304L78.2259 14.5455H74.2031V32H78.9418V22.8295H79.044L85.3509 32H89.3054V14.5455Z" fill="white"/>
<path d="M92.1391 8.98393C92.1441 11.9016 94.4623 14.1399 97.2551 14.1399C100.078 14.1399 102.376 11.9016 102.371 8.98393C102.376 6.08621 100.078 3.84796 97.2551 3.84796C94.4623 3.84796 92.1441 6.08621 92.1391 8.98393ZM93.0184 8.98393C93.0234 6.56583 94.9419 4.70729 97.2551 4.70729C99.5983 4.70729 101.497 6.56583 101.492 8.98393C101.497 11.422 99.5983 13.2806 97.2551 13.2806C94.9419 13.2806 93.0234 11.422 93.0184 8.98393ZM98.4542 9.90321C98.4592 10.8025 98.0195 11.1422 97.1552 11.1422C96.2409 11.1422 95.7813 10.4228 95.7763 9.4036V8.58425C95.7813 7.56505 96.2409 6.84561 97.1552 6.84561C98.0195 6.84561 98.4592 7.20533 98.4542 8.08464H99.5933C99.5983 6.64577 98.639 5.92633 97.1552 5.92633C95.6414 5.92633 94.6421 7.00549 94.6371 8.58425V9.4036C94.6421 10.9824 95.6414 12.0615 97.1552 12.0615C98.639 12.0615 99.5983 11.3421 99.5933 9.90321H98.4542Z" fill="white"/>
</svg>
