<svg width="10" height="12" viewBox="0 0 10 12" fill="none" xmlns="http://www.w3.org/2000/svg">
<path d="M1.75833 2.31111L2.54722 3.1C1.9231 3.60592 1.47127 4.29297 1.25399 5.06645C1.03671 5.83993 1.06468 6.66176 1.33405 7.41867C1.60342 8.17559 2.10092 8.83033 2.758 9.29264C3.41507 9.75496 4.19936 10.0021 5.00278 9.99999C5.80467 9.99886 6.58662 9.74987 7.24151 9.28711C7.89641 8.82435 8.39224 8.17045 8.6611 7.41497C8.92996 6.65949 8.9587 5.83937 8.74339 5.06692C8.52807 4.29447 8.07923 3.60747 7.45833 3.1L8.24722 2.31111C9.02465 2.97509 9.57984 3.86143 9.83799 4.85068C10.0961 5.83993 10.0448 6.88454 9.69096 7.84372C9.3371 8.80291 8.6977 9.63057 7.85894 10.2152C7.02018 10.7997 6.02238 11.1131 5 11.1131C3.97762 11.1131 2.97982 10.7997 2.14106 10.2152C1.3023 9.63057 0.6629 8.80291 0.30904 7.84372C-0.0448202 6.88454 -0.0961356 5.83993 0.16201 4.85068C0.420155 3.86143 0.975353 2.97509 1.75278 2.31111H1.75833ZM4.44722 0H5.55833V4.44444H4.44722V0Z" fill="white"/>
</svg>
